<svg width="603" height="281" viewBox="0 0 603 281" fill="none" xmlns="http://www.w3.org/2000/svg">
<path d="M239.001 107.824C238.501 109.964 238.001 112.084 237.401 114.174C236.231 118.524 234.961 122.864 233.581 127.174V203.754H211.971V177.464C204.411 191.353 195.764 204.621 186.111 217.144C171.591 236.024 154.301 253.284 133.921 266.604C120.921 274.804 104.701 281.534 89.2208 280.244C97.7908 280.344 106.471 278.104 114.441 274.934C127.851 269.654 139.751 260.574 150.321 250.934C161.203 240.858 171.055 229.723 179.731 217.694C182.731 213.524 185.661 209.294 188.401 205.004C195.206 194.374 201.451 183.396 207.111 172.114C210.451 165.264 213.621 158.344 216.561 151.384C226.051 128.944 234.331 104.954 237.011 80.6143C238.681 65.5043 237.861 49.9743 233.151 35.5243C228.441 21.0743 219.151 8.82427 203.881 4.98427C170.551 -1.64573 132.741 29.5143 111.211 55.1743C114.225 50.7132 117.533 46.4572 121.111 42.4343C123.951 39.1443 126.111 36.3543 129.921 32.5643C149.581 13.1543 177.631 -3.95572 205.721 0.804277C222.241 4.27428 232.591 17.2743 238.351 32.2643C247.311 55.7643 244.831 83.4443 239.001 107.824Z" fill="white"/>
<path d="M198.811 11.2043C166.581 4.33428 132.431 27.3043 99.9308 83.6743C114.931 63.5343 133.651 43.4943 156.711 32.5543C174.781 24.0043 195.101 24.3843 207.151 39.2543C207.001 39.0843 206.851 38.9243 206.691 38.7643C215.861 52.5943 213.371 73.4943 210.251 89.1143C205.717 111.626 198.411 133.489 188.501 154.204C179.484 173.238 168.454 191.25 155.601 207.934C152.121 212.484 148.551 216.754 144.961 220.814C119.231 249.764 91.6408 266.054 71.6108 260.984C68.3496 260.157 65.2751 258.718 62.5508 256.744C67.8908 264.804 75.1808 270.154 84.3808 272.094C97.9708 274.974 113.911 270.094 130.231 259.194L130.461 259.034C131.301 258.464 132.191 257.864 133.061 257.254C133.331 257.094 133.591 256.854 133.891 256.654C134.451 256.284 135.051 255.804 135.711 255.324C135.911 255.164 136.101 255.004 136.341 254.844C136.731 254.524 137.161 254.204 137.591 253.844C138.201 253.374 138.811 252.904 139.411 252.424L139.271 252.524L139.671 252.204L139.411 252.424L140.411 251.634L140.971 251.194L141.391 250.844C152.904 241.186 163.323 230.294 172.461 218.364C175.621 214.274 178.741 210.044 181.771 205.614C185.771 199.824 189.601 193.774 193.311 187.444C200.087 175.875 206.116 163.884 211.361 151.544C212.881 147.954 214.361 144.404 215.671 140.864C220.635 127.941 224.609 114.66 227.561 101.134C238.791 48.6143 228.231 17.5143 198.811 11.2043ZM160.161 232.184C157.681 235.064 155.121 237.858 152.481 240.564C155.121 237.864 157.681 235.078 160.161 232.204V232.184ZM149.681 243.344C148.841 244.164 147.981 244.974 147.121 245.774C147.981 244.974 148.841 244.204 149.681 243.344ZM146.881 246.004C146.011 246.794 145.141 247.584 144.271 248.354C145.111 247.584 146.011 246.794 146.881 246.004ZM162.691 229.174C164.231 227.304 165.741 225.394 167.221 223.474C165.741 225.394 164.231 227.304 162.691 229.204V229.174ZM173.501 214.924C173.161 215.424 172.811 215.924 172.501 216.414C172.781 215.884 173.111 215.384 173.471 214.884L173.501 214.924ZM171.721 217.464C171.161 218.254 170.591 219.034 170.021 219.814C170.561 218.994 171.111 218.204 171.691 217.424L171.721 217.464ZM169.471 220.564C168.844 221.411 168.204 222.261 167.551 223.114C168.171 222.204 168.801 221.374 169.441 220.524L169.471 220.564ZM218.161 73.4043C218.551 78.5543 218.681 83.7043 218.581 88.8543C218.671 83.7143 218.581 78.5643 218.161 73.4143C217.491 64.6143 216.031 55.7843 212.361 47.7843C212.011 47.0043 211.621 46.2643 211.241 45.5543C211.161 45.3843 211.071 45.2543 210.991 45.0843C210.611 44.4443 210.241 43.8143 209.871 43.2043C209.501 42.5943 209.131 42.0443 208.721 41.4443C208.311 40.8443 208.031 40.4443 207.671 39.9443C209.529 42.3693 211.103 44.9999 212.361 47.7843C216.031 55.7843 217.501 64.6243 218.161 73.4043Z" fill="white"/>
<path d="M206.111 37.9343C206.591 38.4943 207.021 39.0543 207.461 39.6143C207.233 39.3248 206.985 39.0509 206.721 38.7943C206.678 38.7632 206.649 38.7165 206.641 38.6643C206.445 38.4354 206.268 38.1913 206.111 37.9343Z" fill="white"/>
<path d="M218.161 73.4143C217.491 64.6143 216.031 55.7843 212.361 47.7843C217.981 59.4943 219.701 74.0843 218.551 90.1043C218.705 84.5379 218.575 78.9673 218.161 73.4143Z" fill="white"/>
<path d="M80.9508 191.834C72.3908 200.261 62.5275 204.474 51.3608 204.474C44.4441 204.506 37.6088 202.982 31.3608 200.014C25.1856 197.105 19.6305 193.031 15.0008 188.014C10.3056 182.966 6.57711 177.099 4.0008 170.704C1.35306 164.243 -0.0057664 157.327 0.000796158 150.344C-0.0756546 136.432 5.35651 123.055 15.1108 113.134C19.9167 108.292 25.6014 104.409 31.8608 101.694C38.453 98.8308 45.5739 97.3862 52.7608 97.4543C62.8808 97.4543 71.5475 99.5343 78.7608 103.694C85.7006 107.599 91.3566 113.435 95.0408 120.494L78.9108 131.794C76.4194 126.797 72.5325 122.628 67.7208 119.794C62.9497 117.012 57.5137 115.574 51.9908 115.634C47.6755 115.57 43.4073 116.537 39.5408 118.454C35.8629 120.317 32.6321 122.954 30.0708 126.184C27.4003 129.567 25.3364 133.387 23.9708 137.474C22.4957 141.832 21.7557 146.404 21.7808 151.004C21.7427 155.739 22.5347 160.443 24.1208 164.904C25.58 169.029 27.8133 172.837 30.7008 176.124C33.4791 179.264 36.8592 181.814 40.6408 183.624C44.5764 185.489 48.8861 186.43 53.2408 186.374C63.4741 186.374 72.7108 181.571 80.9508 171.964V164.534H58.5608V149.534H98.7908V203.784H80.9508V191.834Z" fill="white"/>
<path d="M182.821 168.204L144.501 98.2043H121.341V203.724H142.941V133.874L171.591 185.874H175.731C175.111 175.474 182.801 178.614 182.821 168.204Z" fill="white"/>
<path d="M271.771 98.2043L301.821 178.014L331.571 98.2043H354.271L310.901 203.724H292.751L249.111 98.2043H271.771Z" fill="white"/>
<path d="M447.621 120.854C446.821 121.699 445.863 122.379 444.801 122.854C443.775 123.281 442.672 123.496 441.561 123.484C440.023 123.506 438.501 123.164 437.121 122.484C435.736 121.788 434.498 120.835 433.471 119.674C432.412 118.471 431.576 117.09 431.001 115.594C430.395 114.046 430.086 112.397 430.091 110.734C430.079 109.077 430.388 107.434 431.001 105.894C431.578 104.412 432.433 103.054 433.521 101.894C434.598 100.761 435.885 99.8472 437.311 99.2043C438.981 98.4824 440.793 98.1496 442.61 98.231C444.427 98.3124 446.202 98.806 447.801 99.6743C449.417 100.601 450.714 101.995 451.521 103.674L447.201 106.904C446.734 105.835 445.961 104.927 444.981 104.294C444.047 103.685 442.956 103.362 441.841 103.364C441.001 103.352 440.173 103.552 439.431 103.944C438.704 104.339 438.072 104.889 437.581 105.554C437.037 106.275 436.627 107.088 436.371 107.954C436.071 108.926 435.926 109.938 435.941 110.954C435.932 111.972 436.088 112.985 436.401 113.954C436.674 114.814 437.101 115.617 437.661 116.324C438.187 116.975 438.845 117.506 439.591 117.884C440.356 118.259 441.198 118.451 442.051 118.444C443.08 118.447 444.092 118.186 444.991 117.684C446.018 117.113 446.914 116.333 447.621 115.394V114.554H442.821V110.374H452.391V123.374H447.621V120.854Z" fill="white"/>
<path d="M457.111 123.274V98.3743H462.871V118.204H474.911V123.254L457.111 123.274Z" fill="white"/>
<path d="M488.311 123.494C486.635 123.513 484.977 123.14 483.471 122.404C482.054 121.701 480.788 120.729 479.741 119.544C478.694 118.353 477.874 116.981 477.321 115.494C476.748 113.994 476.456 112.4 476.461 110.794C476.459 107.559 477.664 104.439 479.841 102.044C480.912 100.884 482.2 99.9427 483.631 99.2743C485.133 98.5882 486.77 98.2465 488.421 98.2743C490.098 98.2508 491.756 98.6243 493.261 99.3643C494.681 100.065 495.949 101.041 496.991 102.234C498.035 103.433 498.852 104.812 499.401 106.304C499.953 107.786 500.238 109.353 500.241 110.934C500.231 114.166 499.031 117.281 496.871 119.684C495.809 120.852 494.528 121.8 493.101 122.474C491.601 123.17 489.964 123.519 488.311 123.494ZM482.311 110.864C482.31 111.809 482.448 112.749 482.721 113.654C482.968 114.514 483.36 115.326 483.881 116.054C484.376 116.75 485.022 117.324 485.771 117.734C486.572 118.164 487.471 118.381 488.381 118.364C489.301 118.386 490.21 118.158 491.011 117.704C491.753 117.263 492.394 116.67 492.891 115.964C493.405 115.23 493.784 114.411 494.011 113.544C494.258 112.649 494.383 111.724 494.381 110.794C494.385 109.85 494.25 108.91 493.981 108.004C493.733 107.144 493.333 106.334 492.801 105.614C492.302 104.933 491.656 104.372 490.911 103.974C490.124 103.553 489.243 103.34 488.351 103.354C487.432 103.332 486.524 103.557 485.721 104.004C484.978 104.428 484.337 105.008 483.841 105.704C483.327 106.434 482.941 107.245 482.701 108.104C482.441 109.001 482.31 109.931 482.311 110.864Z" fill="white"/>
<path d="M525.111 116.894C525.135 117.872 524.907 118.839 524.451 119.704C524.001 120.502 523.375 121.186 522.621 121.704C521.795 122.251 520.882 122.653 519.921 122.894C518.856 123.167 517.76 123.301 516.661 123.294H504.481V98.3943H518.341C519.158 98.3861 519.965 98.5784 520.691 98.9543C521.376 99.3204 521.984 99.8163 522.481 100.414C522.975 101.009 523.361 101.686 523.621 102.414C523.882 103.164 524.017 103.951 524.021 104.744C524.023 105.926 523.717 107.088 523.131 108.114C522.514 109.179 521.571 110.017 520.441 110.504C521.782 110.867 522.971 111.652 523.831 112.744C524.713 113.944 525.165 115.406 525.111 116.894ZM510.271 103.284V108.444H515.921C516.542 108.447 517.143 108.223 517.611 107.814C517.875 107.557 518.077 107.244 518.203 106.897C518.33 106.551 518.377 106.181 518.341 105.814C518.365 105.472 518.32 105.128 518.209 104.803C518.097 104.478 517.921 104.179 517.691 103.924C517.493 103.709 517.252 103.537 516.983 103.422C516.714 103.307 516.423 103.249 516.131 103.254L510.271 103.284ZM519.271 115.734C519.3 115.01 519.065 114.299 518.611 113.734C518.411 113.478 518.154 113.272 517.861 113.131C517.568 112.991 517.246 112.92 516.921 112.924H510.291V118.364H516.681C517.025 118.375 517.368 118.314 517.687 118.187C518.007 118.06 518.298 117.868 518.541 117.624C518.772 117.369 518.95 117.071 519.065 116.746C519.18 116.422 519.23 116.078 519.211 115.734H519.271Z" fill="white"/>
<path d="M526.441 123.274L536.021 98.3743H540.681L550.221 123.274H544.111L542.181 117.704H534.431L532.531 123.274H526.441ZM538.331 104.474L535.331 113.734H541.191L538.331 104.474Z" fill="white"/>
<path d="M553.381 123.274V98.3743H559.111V118.204H571.181V123.254L553.381 123.274Z" fill="white"/>
<path d="M436.111 178.614L442.011 196.294L447.801 178.614H453.861L444.391 203.514H439.591L430.111 178.614H436.111Z" fill="white"/>
<path d="M474.561 198.464V203.464H457.111V178.564H474.301V183.614H462.811V188.454H472.631V193.204H462.811V198.494L474.561 198.464Z" fill="white"/>
<path d="M484.771 189.274V203.514H479.021V178.614H483.511L495.111 193.204V178.614H500.861V203.514H496.231L484.771 189.274Z" fill="white"/>
<path d="M525.491 183.664H517.921V203.514H512.161V183.664H504.551V178.614H525.491V183.664Z" fill="white"/>
<path d="M539.871 198.604C540.741 198.636 541.604 198.425 542.361 197.994C543.035 197.592 543.601 197.033 544.011 196.364C544.447 195.644 544.751 194.851 544.911 194.024C545.083 193.141 545.17 192.244 545.171 191.344V178.614H550.921V191.344C550.937 192.98 550.718 194.61 550.271 196.184C549.874 197.615 549.194 198.952 548.271 200.114C547.351 201.254 546.176 202.162 544.841 202.764C541.619 204.078 538.012 204.078 534.791 202.764C533.452 202.14 532.28 201.208 531.371 200.044C530.473 198.868 529.817 197.525 529.441 196.094C529.024 194.563 528.815 192.982 528.821 191.394V178.614H534.581V191.344C534.575 192.265 534.669 193.184 534.861 194.084C535.027 194.901 535.335 195.683 535.771 196.394C536.174 197.059 536.734 197.615 537.401 198.014C538.157 198.428 539.01 198.631 539.871 198.604Z" fill="white"/>
<path d="M556.221 203.514V178.614H567.441C568.567 178.601 569.681 178.855 570.691 179.354C571.662 179.83 572.536 180.481 573.271 181.274C573.992 182.071 574.567 182.989 574.971 183.984C575.372 184.951 575.579 185.987 575.581 187.034C575.585 187.783 575.491 188.53 575.301 189.254C575.115 189.952 574.843 190.624 574.491 191.254C573.795 192.518 572.755 193.558 571.491 194.254L577.211 203.514H570.721L565.721 195.514H561.971V203.514H556.221ZM561.971 190.514H567.231C567.583 190.503 567.928 190.406 568.235 190.232C568.541 190.058 568.801 189.811 568.991 189.514C569.5 188.794 569.756 187.926 569.721 187.044C569.767 186.147 569.466 185.266 568.881 184.584C568.66 184.311 568.384 184.088 568.07 183.931C567.756 183.774 567.412 183.687 567.061 183.674H561.971V190.514Z" fill="white"/>
<path d="M578.421 203.514L588.001 178.614H592.661L602.201 203.514H596.111L594.181 197.944H586.431L584.531 203.514H578.421ZM590.311 184.714L587.311 193.974H593.171L590.311 184.714Z" fill="white"/>
<path d="M449.731 163.464V148.554L444.331 159.394H441.241L435.841 148.554V163.464H430.111V138.554H436.351L442.801 151.554L449.291 138.554H455.501V163.464H449.731Z" fill="white"/>
<path d="M461.111 163.464V138.554H466.861V163.464H461.111Z" fill="white"/>
<path d="M478.281 149.204V163.454H472.531V138.554H477.021L488.631 153.204V138.554H494.381V163.464H489.751L478.281 149.204Z" fill="white"/>
<path d="M497.571 163.464L507.111 138.554H511.771L521.311 163.464H515.211L513.281 157.884H505.531L503.631 163.464H497.571ZM509.461 144.654L506.461 153.914H512.321L509.461 144.654Z" fill="white"/>
<path d="M530.261 149.204V163.454H524.511V138.554H529.001L540.611 153.204V138.554H546.361V163.464H541.731L530.261 149.204Z" fill="white"/>
<path d="M568.111 161.044C567.307 161.885 566.35 162.564 565.291 163.044C564.264 163.47 563.162 163.685 562.051 163.674C560.513 163.696 558.991 163.354 557.611 162.674C556.226 161.978 554.988 161.025 553.961 159.864C552.902 158.661 552.066 157.28 551.491 155.784C550.885 154.236 550.576 152.587 550.581 150.924C550.569 149.267 550.878 147.624 551.491 146.084C552.068 144.602 552.923 143.244 554.011 142.084C555.091 140.962 556.378 140.058 557.801 139.424C559.471 138.702 561.283 138.37 563.1 138.451C564.917 138.532 566.692 139.026 568.291 139.894C569.907 140.821 571.204 142.215 572.011 143.894L567.691 147.124C567.224 146.055 566.451 145.147 565.471 144.514C564.536 143.906 563.445 143.583 562.331 143.584C561.491 143.572 560.663 143.772 559.921 144.164C559.193 144.562 558.558 145.111 558.061 145.774C557.525 146.5 557.116 147.312 556.851 148.174C556.559 149.147 556.418 150.159 556.431 151.174C556.422 152.192 556.578 153.205 556.891 154.174C557.164 155.034 557.591 155.837 558.151 156.544C558.677 157.195 559.335 157.726 560.081 158.104C560.846 158.479 561.688 158.671 562.541 158.664C563.568 158.665 564.579 158.407 565.481 157.914C566.504 157.333 567.398 156.551 568.111 155.614V154.774H563.311V150.594H572.881V163.594H568.111V161.044Z" fill="white"/>
<path d="M394.791 98.3743H392.511V203.554H394.791V98.3743Z" fill="white"/>
</svg>
